<svg width="56" height="56" viewBox="0 0 56 56" fill="none" xmlns="http://www.w3.org/2000/svg">
<rect x="54.9565" y="0.956512" width="54" height="54" rx="27" transform="rotate(90 54.9565 0.956512)" stroke="white" stroke-opacity="0.15" stroke-width="0.95" stroke-miterlimit="0" stroke-linejoin="bevel"/>
<path d="M22.8404 38L14.9145 19.3193H18.1969L22.8671 30.5811C23.0272 31.0081 23.2051 31.4529 23.4008 31.9154C23.5965 32.3602 23.7833 32.8139 23.9612 33.2765C24.1569 33.7212 24.3349 34.1571 24.495 34.5841C24.6551 34.9933 24.7974 35.3847 24.922 35.7583L24.148 35.785C24.3082 35.3224 24.495 34.8065 24.7085 34.2372C24.922 33.6679 25.1443 33.0808 25.3756 32.4759C25.6069 31.8532 25.8471 31.2305 26.0962 30.6078L30.4194 19.3193H33.8086L25.9094 38H22.8404ZM24.5035 38V19.3193H33.2567C34.5911 19.3193 35.7119 19.4972 36.6193 19.8531C37.5266 20.2089 38.2116 20.7426 38.6741 21.4543C39.1545 22.1481 39.3947 23.0021 39.3947 24.0162C39.3947 25.0125 39.0922 25.8754 38.4873 26.6048C37.8824 27.3164 37.0285 27.8057 35.9254 28.0726L36.0055 27.5655C36.8239 27.7434 37.5622 28.0459 38.2205 28.4729C38.8787 28.8998 39.4036 29.4514 39.795 30.1274C40.1864 30.8035 40.3821 31.5952 40.3821 32.5025C40.3821 33.4633 40.2042 34.2994 39.8484 35.0111C39.5103 35.7049 39.03 36.2743 38.4073 36.719C37.8024 37.146 37.0996 37.4663 36.299 37.6798C35.4984 37.8933 34.6267 38 33.6837 38H24.5035ZM27.3857 35.2246H33.6304C34.4132 35.2246 35.0803 35.1267 35.6319 34.931C36.2012 34.7175 36.646 34.4062 36.9662 33.997C37.2864 33.57 37.4466 33.0541 37.4466 32.4492C37.4466 31.8265 37.2597 31.3194 36.8861 30.928C36.5303 30.5366 36.05 30.252 35.4451 30.0741C34.8579 29.8784 34.2086 29.7805 33.4969 29.7805H27.3857V35.2246ZM27.3857 27.0051H33.3635C33.9328 27.0051 34.4488 26.8983 34.9113 26.6849C35.3917 26.4714 35.7653 26.1778 36.0322 25.8042C36.3168 25.4306 36.4591 25.0036 36.4591 24.5232C36.4591 23.7048 36.1478 23.0999 35.5251 22.7085C34.9024 22.2993 34.0751 22.0947 33.0433 22.0947H27.3857V27.0051Z" fill="white"/>
</svg>
